<svg width="444" height="148" viewBox="0 0 444 148" fill="none" xmlns="http://www.w3.org/2000/svg">
<g clip-path="url(#clip0_272_11162)">
<path opacity="0.1" fill-rule="evenodd" clip-rule="evenodd" d="M23.7803 247.734V275.164H-4.04102V275.948H23.7803V303.378H-4.04102V304.161H23.7803V331.983H24.5641V304.161H51.9935V331.983H52.7773V304.161H80.2068V331.983H80.9905V304.161H108.42V331.983H109.204V304.161H136.633V331.983H137.417V304.161H164.847V331.983H165.63V304.161H193.06V331.983H193.843V304.161H221.273V331.983H222.056V304.161H249.486V331.983H250.27V304.161H277.699V331.983H278.483V304.161H305.913V331.983H306.696V304.161H334.126V331.983H334.909V304.161H362.339V331.983H363.122V304.161H390.552V331.983H391.336V304.161H418.765V331.983H419.549V304.161H447.37V303.378H419.549V275.948H447.37V275.164H419.549V247.734H447.37V246.951H419.549V219.521H447.37V218.737H419.549V191.307H447.37V190.524H419.549V163.094H447.37V162.311H419.549V134.88H447.37V134.097H419.549V106.667H447.37V105.884H419.549V78.4537H447.37V77.67H419.549V50.2402H447.37V49.4565H419.549V22.0267H447.37V21.243H419.549V-6.18682H447.37V-6.97053H419.549V-34.4003H447.37V-35.184H419.549V-62.6137H447.37V-63.3976H419.549V-90.8272H447.37V-91.611H419.549V-119.433H418.765V-91.611H391.336V-119.433H390.552V-91.611H363.122V-119.433H362.339V-91.611H334.909V-119.433H334.126V-91.611H306.696V-119.433H305.913V-91.611H278.483V-119.433H277.699V-91.611H250.27V-119.433H249.486V-91.611H222.056V-119.433H221.273V-91.611H193.843V-119.433H193.06V-91.611H165.63V-119.433H164.847V-91.611H137.417V-119.433H136.633V-91.611H109.204V-119.433H108.42V-91.611H80.9905V-119.433H80.2068V-91.611H52.7773V-119.433H51.9935V-91.611H24.5641V-119.433H23.7803V-91.611H-4.04102V-90.8273H23.7803V-63.3976H-4.04102V-62.6138H23.7803V-35.1841H-4.04102V-34.4004H23.7803V-6.97055H-4.04102V-6.18685H23.7803V21.2429H-4.04102V22.0266H23.7803V49.4564H-4.04102V50.2401H23.7803V77.6699H-4.04102V78.4536H23.7803V105.884H-4.04102V106.667H23.7803V134.097H-4.04102V134.88H23.7803V162.311H-4.04102V163.094H23.7803V190.524H-4.04102V191.307H23.7803V218.737H-4.04102V219.521H23.7803V246.951H-4.04102V247.734H23.7803ZM418.765 303.378V275.948H391.336V303.378H418.765ZM390.552 303.378V275.948H363.122V303.378H390.552ZM362.339 303.378V275.948H334.909V303.378H362.339ZM334.126 303.378V275.948H306.696V303.378H334.126ZM305.913 303.378V275.948H278.483V303.378H305.913ZM277.699 303.378V275.948H250.27V303.378H277.699ZM249.486 303.378V275.948H222.056V303.378H249.486ZM221.273 303.378V275.948H193.843V303.378H221.273ZM193.06 303.378V275.948H165.63V303.378H193.06ZM164.847 303.378V275.948H137.417V303.378H164.847ZM136.633 303.378V275.948H109.204V303.378H136.633ZM108.42 303.378V275.948H80.9905V303.378H108.42ZM80.2068 303.378V275.948H52.7773V303.378H80.2068ZM51.9935 303.378V275.948H24.5641V303.378H51.9935ZM51.9935 275.164H24.5641V247.734H51.9935V275.164ZM80.2068 275.164H52.7773V247.734H80.2068V275.164ZM108.42 275.164H80.9905V247.734H108.42V275.164ZM136.633 275.164H109.204V247.734H136.633V275.164ZM164.847 275.164H137.417V247.734H164.847V275.164ZM193.06 275.164H165.63V247.734H193.06V275.164ZM221.273 275.164H193.843V247.734H221.273V275.164ZM249.486 275.164H222.056V247.734H249.486V275.164ZM277.699 275.164H250.27V247.734H277.699V275.164ZM305.913 275.164H278.483V247.734H305.913V275.164ZM334.126 275.164H306.696V247.734H334.126V275.164ZM362.339 275.164H334.909V247.734H362.339V275.164ZM390.552 275.164H363.122V247.734H390.552V275.164ZM418.765 275.164H391.336V247.734H418.765V275.164ZM418.765 -90.8272H391.336V-63.3976H418.765V-90.8272ZM418.765 -62.6138H391.336V-35.1841H418.765V-62.6138ZM418.765 -34.4004H391.336V-6.97055H418.765V-34.4004ZM418.765 -6.18684H391.336V21.2429H418.765V-6.18684ZM418.765 22.0266H391.336V49.4564H418.765V22.0266ZM418.765 50.2401H391.336V77.6699H418.765V50.2401ZM418.765 78.4536H391.336V105.884H418.765V78.4536ZM418.765 106.667H391.336V134.097H418.765V106.667ZM418.765 134.88H391.336V162.311H418.765V134.88ZM418.765 163.094H391.336V190.524H418.765V163.094ZM418.765 191.307H391.336V218.737H418.765V191.307ZM418.765 219.521H391.336V246.951H418.765V219.521ZM390.552 219.521V246.951H363.122V219.521H390.552ZM390.552 191.307V218.737H363.122V191.307H390.552ZM390.552 163.094V190.524H363.122V163.094H390.552ZM390.552 134.88V162.311H363.122V134.88H390.552ZM390.552 106.667V134.097H363.122V106.667H390.552ZM390.552 78.4536V105.884H363.122V78.4536H390.552ZM390.552 50.2401V77.6699H363.122V50.2401H390.552ZM390.552 22.0266V49.4564H363.122V22.0266H390.552ZM390.552 -6.18684V21.2429H363.122V-6.18684H390.552ZM390.552 -34.4004V-6.97055H363.122V-34.4004H390.552ZM390.552 -62.6138V-35.1841H363.122V-62.6138H390.552ZM390.552 -90.8272V-63.3976H363.122V-90.8272H390.552ZM24.5641 246.951H51.9935V219.521H24.5641V246.951ZM52.7773 246.951H80.2068V219.521H52.7773V246.951ZM80.9905 246.951H108.42V219.521H80.9905V246.951ZM109.204 246.951H136.633V219.521H109.204V246.951ZM137.417 246.951H164.847V219.521H137.417V246.951ZM165.63 246.951H193.06V219.521H165.63V246.951ZM193.843 246.951H221.273V219.521H193.843V246.951ZM222.056 246.951H249.486V219.521H222.056V246.951ZM250.27 246.951H277.699V219.521H250.27V246.951ZM278.483 246.951H305.913V219.521H278.483V246.951ZM306.696 246.951H334.126V219.521H306.696V246.951ZM334.909 246.951H362.339V219.521H334.909V246.951ZM362.339 191.307V218.737H334.909V191.307H362.339ZM362.339 163.094V190.524H334.909V163.094H362.339ZM362.339 134.88V162.311H334.909V134.88H362.339ZM362.339 106.667V134.097H334.909V106.667H362.339ZM362.339 78.4536V105.884H334.909V78.4536H362.339ZM362.339 50.2401V77.6699H334.909V50.2401H362.339ZM362.339 22.0266V49.4564H334.909V22.0266H362.339ZM362.339 -6.18684V21.2429H334.909V-6.18684H362.339ZM362.339 -34.4004V-6.97055H334.909V-34.4004H362.339ZM362.339 -62.6138V-35.1841H334.909V-62.6138H362.339ZM362.339 -90.8273V-63.3976H334.909V-90.8273H362.339ZM24.5641 218.737H51.9935V191.307H24.5641V218.737ZM52.7773 218.737H80.2068V191.307H52.7773V218.737ZM80.9905 218.737H108.42V191.307H80.9905V218.737ZM109.204 218.737H136.633V191.307H109.204V218.737ZM137.417 218.737H164.847V191.307H137.417V218.737ZM165.63 218.737H193.06V191.307H165.63V218.737ZM193.843 218.737H221.273V191.307H193.843V218.737ZM222.056 218.737H249.486V191.307H222.056V218.737ZM250.27 218.737H277.699V191.307H250.27V218.737ZM278.483 218.737H305.913V191.307H278.483V218.737ZM306.696 218.737H334.126V191.307H306.696V218.737ZM334.126 163.094V190.524H306.696V163.094H334.126ZM334.126 134.88V162.311H306.696V134.88H334.126ZM334.126 106.667V134.097H306.696V106.667H334.126ZM334.126 78.4536V105.884H306.696V78.4536H334.126ZM334.126 50.2401V77.6699H306.696V50.2401H334.126ZM334.126 22.0266V49.4564H306.696V22.0266H334.126ZM334.126 -6.18684V21.2429H306.696V-6.18684H334.126ZM334.126 -34.4004V-6.97055H306.696V-34.4004H334.126ZM334.126 -62.6138V-35.1841H306.696V-62.6138H334.126ZM334.126 -90.8273V-63.3976H306.696V-90.8273H334.126ZM24.5641 190.524H51.9935V163.094H24.5641V190.524ZM52.7773 190.524H80.2068V163.094H52.7773V190.524ZM80.9905 190.524H108.42V163.094H80.9905V190.524ZM109.204 190.524H136.633V163.094H109.204V190.524ZM137.417 190.524H164.847V163.094H137.417V190.524ZM165.63 190.524H193.06V163.094H165.63V190.524ZM193.843 190.524H221.273V163.094H193.843V190.524ZM222.056 190.524H249.486V163.094H222.056V190.524ZM250.27 190.524H277.699V163.094H250.27V190.524ZM278.483 190.524H305.913V163.094H278.483V190.524ZM305.913 134.88V162.311H278.483V134.88H305.913ZM305.913 106.667V134.097H278.483V106.667H305.913ZM305.913 78.4536V105.884H278.483V78.4536H305.913ZM305.913 50.2401V77.6699H278.483V50.2401H305.913ZM305.913 22.0266V49.4564H278.483V22.0266H305.913ZM305.913 -6.18684V21.2429H278.483V-6.18684H305.913ZM305.913 -34.4004V-6.97055H278.483V-34.4004H305.913ZM305.913 -62.6138V-35.1841H278.483V-62.6138H305.913ZM305.913 -90.8273V-63.3976H278.483V-90.8273H305.913ZM24.5641 162.311H51.9935V134.88H24.5641V162.311ZM52.7773 162.311H80.2068V134.88H52.7773V162.311ZM80.9905 162.311H108.42V134.88H80.9905V162.311ZM109.204 162.311H136.633V134.88H109.204V162.311ZM137.417 162.311H164.847V134.88H137.417V162.311ZM165.63 162.311H193.06V134.88H165.63V162.311ZM193.843 162.311H221.273V134.88H193.843V162.311ZM222.056 162.311H249.486V134.88H222.056V162.311ZM250.27 162.311H277.699V134.88H250.27V162.311ZM277.699 106.667V134.097H250.27V106.667H277.699ZM277.699 78.4536V105.884H250.27V78.4536H277.699ZM277.699 50.2401V77.6699H250.27V50.2401H277.699ZM277.699 22.0266V49.4564H250.27V22.0266H277.699ZM277.699 -6.18684V21.2429H250.27V-6.18684H277.699ZM277.699 -34.4004V-6.97055H250.27V-34.4004H277.699ZM277.699 -62.6138V-35.1841H250.27V-62.6138H277.699ZM277.699 -90.8273V-63.3976H250.27V-90.8273H277.699ZM24.5641 134.097H51.9935V106.667H24.5641V134.097ZM52.7773 134.097H80.2068V106.667H52.7773V134.097ZM80.9905 134.097H108.42V106.667H80.9905V134.097ZM109.204 134.097H136.633V106.667H109.204V134.097ZM137.417 134.097H164.847V106.667H137.417V134.097ZM165.63 134.097H193.06V106.667H165.63V134.097ZM193.843 134.097H221.273V106.667H193.843V134.097ZM222.056 134.097H249.486V106.667H222.056V134.097ZM249.486 78.4536V105.884H222.056V78.4536H249.486ZM249.486 50.2401V77.6699H222.056V50.2401H249.486ZM249.486 22.0266V49.4564H222.056V22.0266H249.486ZM249.486 -6.18684V21.2429H222.056V-6.18684H249.486ZM249.486 -34.4004V-6.97055H222.056V-34.4004H249.486ZM249.486 -62.6138V-35.1841H222.056V-62.6138H249.486ZM249.486 -90.8273V-63.3976H222.056V-90.8273H249.486ZM24.5641 105.884H51.9935V78.4536H24.5641V105.884ZM52.7773 105.884H80.2068V78.4536H52.7773V105.884ZM80.9905 105.884H108.42V78.4536H80.9905V105.884ZM109.204 105.884H136.633V78.4536H109.204V105.884ZM137.417 105.884H164.847V78.4536H137.417V105.884ZM165.63 105.884H193.06V78.4536H165.63V105.884ZM193.843 105.884H221.273V78.4536H193.843V105.884ZM221.273 50.2401V77.6699H193.843V50.2401H221.273ZM221.273 22.0266V49.4564H193.843V22.0266H221.273ZM221.273 -6.18684V21.2429H193.843V-6.18684H221.273ZM221.273 -34.4004V-6.97055H193.843V-34.4004H221.273ZM221.273 -62.6138V-35.1841H193.843V-62.6138H221.273ZM221.273 -90.8273V-63.3976H193.843V-90.8273H221.273ZM24.5641 77.6699H51.9935V50.2401H24.5641V77.6699ZM52.7773 77.6699H80.2068V50.2401H52.7773V77.6699ZM80.9905 77.6699H108.42V50.2401H80.9905V77.6699ZM109.204 77.6699H136.633V50.2401H109.204V77.6699ZM137.417 77.6699H164.847V50.2401H137.417V77.6699ZM165.63 77.6699H193.06V50.2401H165.63V77.6699ZM193.06 22.0266V49.4564H165.63V22.0266H193.06ZM193.06 -6.18684V21.2429H165.63V-6.18684H193.06ZM193.06 -34.4004V-6.97055H165.63V-34.4004H193.06ZM193.06 -62.6138V-35.1841H165.63V-62.6138H193.06ZM193.06 -90.8273V-63.3976H165.63V-90.8273H193.06ZM24.5641 49.4564H51.9935V22.0266H24.5641V49.4564ZM52.7773 49.4564H80.2068V22.0266H52.7773V49.4564ZM80.9905 49.4564H108.42V22.0266H80.9905V49.4564ZM109.204 49.4564H136.633V22.0266H109.204V49.4564ZM137.417 49.4564H164.847V22.0266H137.417V49.4564ZM164.847 -6.18684V21.2429H137.417V-6.18684H164.847ZM164.847 -34.4004V-6.97055H137.417V-34.4004H164.847ZM164.847 -62.6138V-35.1841H137.417V-62.6138H164.847ZM164.847 -90.8273V-63.3976H137.417V-90.8273H164.847ZM24.5641 21.2429H51.9935V-6.18685H24.5641V21.2429ZM52.7773 21.2429H80.2068V-6.18685H52.7773V21.2429ZM80.9905 21.2429H108.42V-6.18685H80.9905V21.2429ZM109.204 21.2429H136.633V-6.18684H109.204V21.2429ZM136.633 -34.4004V-6.97055H109.204V-34.4004H136.633ZM136.633 -62.6138V-35.1841H109.204V-62.6138H136.633ZM136.633 -90.8273V-63.3976H109.204V-90.8273H136.633ZM24.5641 -6.97055H51.9935V-34.4004H24.5641V-6.97055ZM52.7773 -6.97055H80.2068V-34.4004H52.7773V-6.97055ZM80.9905 -6.97055H108.42V-34.4004H80.9905V-6.97055ZM108.42 -62.6138V-35.1841H80.9905V-62.6138H108.42ZM108.42 -90.8273V-63.3976H80.9905V-90.8273H108.42ZM24.5641 -35.1841H51.9935V-62.6138H24.5641V-35.1841ZM52.7773 -35.1841H80.2068V-62.6138H52.7773V-35.1841ZM80.2068 -90.8273V-63.3976H52.7773V-90.8273H80.2068ZM24.5641 -63.3976H51.9935V-90.8273H24.5641V-63.3976Z" fill="url(#paint0_radial_272_11162)" fill-opacity="0.6"/>
</g>
<defs>
<radialGradient id="paint0_radial_272_11162" cx="0" cy="0" r="1" gradientUnits="userSpaceOnUse" gradientTransform="translate(221.665 176.358) rotate(90) scale(187.574 187.573)">
<stop stop-color="white"/>
<stop offset="1" stop-color="#7298F9" stop-opacity="0"/>
</radialGradient>
<clipPath id="clip0_272_11162">
<rect width="443.33" height="147.77" fill="white"/>
</clipPath>
</defs>
</svg>
